<svg width="95" height="45" viewBox="0 0 95 45" fill="none" xmlns="http://www.w3.org/2000/svg">
<path d="M0.854973 4.92378L0.991608 6.12481L3.753 6.65096L8.0302 8.38872L12.5641 10.7674L15.7474 12.5353L18.8017 13.5975L24.637 13.9492L22.74 16.4879L21.4212 20.3794H15.5051L12.0002 23.2721L8.14192 25.6213L8.10946 26.7454L8.18118 27.5576L9.31502 27.4127L10.4006 26.6646L14.8476 23.636L24.1697 23.9651L28.1254 20.8285L30.2172 19.8645L33.5266 16.4162L35.7445 15.573L38.1654 15.7255L40.9298 16.7061L48.4326 16.4426L50.8105 14.8038L51.3231 13.0751V15.8138L52.0946 16.9461L59.8934 14.1614L60.8098 13.7967L63.1492 14.304L65.6086 15.268L66.9501 15.9338L68.2032 15.2114L67.48 13.8609L61.539 11.449L56.9659 11.8831L56.2669 11.6898L58.3881 8.53064L58.678 7.95239L59.7869 7.20505L60.1251 8.02411L61.5715 8.07242L63.1394 7.50625L63.4768 7.83991L64.2483 7.96749L65.5988 6.56642L65.9196 5.78133L64.5057 4.11L64.4416 3.27359L63.4127 2.24543L60.7766 1.7306L59.5537 0.766602H58.8471L58.7188 1.47318L56.7243 1.53734L54.8605 2.69534L49.3785 3.28189L44.4113 6.0312L39.8126 7.45341L36.9183 8.54649L32.3527 9.51199L27.5471 9.61692L22.8524 10.6707L18.9769 10.9267L16.0184 10.1544L9.4124 6.87667L5.47263 5.45975L2.66067 4.85131L0.854973 4.92378Z" fill="#EE5514" stroke="#EE5514" stroke-width="1.5333" stroke-miterlimit="10"/>
<path d="M37.433 21.3026H36.487C36.4724 22.2413 36.4577 23.1873 36.443 24.1406C36.443 25.0939 36.443 26.0473 36.443 27.0006V27.9686H37.521C38.6797 27.9686 39.523 27.6533 40.051 27.0226C40.579 26.3919 40.843 25.5633 40.843 24.5366C40.843 23.4953 40.557 22.6959 39.985 22.1386C39.4277 21.5813 38.577 21.3026 37.433 21.3026ZM31.713 21.2146V20.1806H37.653C39.721 20.1806 41.2317 20.5839 42.185 21.3906C43.153 22.1826 43.637 23.2313 43.637 24.5366C43.637 25.3579 43.4317 26.1206 43.021 26.8246C42.625 27.5139 41.965 28.0639 41.041 28.4746C40.1317 28.8853 38.8997 29.0906 37.345 29.0906H36.443C36.443 29.7946 36.443 30.5133 36.443 31.2466C36.4577 31.9799 36.4724 32.7353 36.487 33.5126L38.489 33.7326V34.7666H31.713V33.7326L33.561 33.5346C33.5904 32.6253 33.605 31.7013 33.605 30.7626C33.605 29.8239 33.605 28.8853 33.605 27.9466V27.0006C33.605 26.0766 33.605 25.1526 33.605 24.2286C33.605 23.2899 33.5904 22.3513 33.561 21.4126L31.713 21.2146ZM53.8007 21.2146V20.1806H59.0807V21.2146L57.2107 21.4346V28.6506C57.2107 30.1906 56.976 31.4373 56.5067 32.3906C56.052 33.3439 55.414 34.0406 54.5927 34.4806C53.7714 34.9206 52.8034 35.1406 51.6887 35.1406C50.618 35.1406 49.672 34.9426 48.8507 34.5466C48.0294 34.1506 47.384 33.5199 46.9147 32.6546C46.4454 31.7893 46.2107 30.6599 46.2107 29.2666V26.8686C46.2107 25.9593 46.2107 25.0499 46.2107 24.1406C46.2107 23.2166 46.196 22.2999 46.1667 21.3906L44.4507 21.2146V20.1806H51.1387V21.2146L49.1147 21.4346C49.1 22.3293 49.0854 23.2313 49.0707 24.1406C49.0707 25.0499 49.0707 25.9593 49.0707 26.8686V28.5846C49.0707 29.7726 49.2027 30.7186 49.4667 31.4226C49.7307 32.1119 50.112 32.6106 50.6107 32.9186C51.124 33.2119 51.74 33.3586 52.4587 33.3586C53.588 33.3586 54.446 32.9846 55.0327 32.2366C55.634 31.4739 55.9347 30.1833 55.9347 28.3646V21.4566L53.8007 21.2146ZM60.1102 34.7666V33.7326L62.1562 33.4466V21.4566L60.1982 21.2146V20.1806H65.1042L69.3942 31.1146L73.4422 20.1806H78.3482V21.2146L76.5442 21.4126C76.5296 22.3219 76.5149 23.2459 76.5002 24.1846C76.5002 25.1086 76.5002 26.0473 76.5002 27.0006V27.9466C76.5002 28.8853 76.5002 29.8239 76.5002 30.7626C76.5149 31.6866 76.5296 32.6106 76.5442 33.5346L78.3922 33.7326V34.7666H71.9022V33.7326L73.6402 33.5126C73.6696 32.6033 73.6842 31.7013 73.6842 30.8066C73.6842 29.8973 73.6842 29.0246 73.6842 28.1886L73.7062 22.9526L69.3502 34.7666H67.9422L63.3222 22.9526L63.4322 27.2646V33.4466L65.2582 33.7326V34.7666H60.1102ZM85.8593 23.0186L83.8353 29.1126H87.8613L85.8593 23.0186ZM79.4133 34.7666V33.7326L81.2173 33.4686L85.8153 20.0926H87.6193L92.2173 33.5786L93.7133 33.7546V34.7666H87.3553V33.7546L89.2913 33.5126L88.2353 30.2566H83.4393L82.3833 33.4466L84.2973 33.7326V34.7666H79.4133Z" fill="#1A0A03"/>
</svg>
